<?xml version="1.0" encoding="utf-8"?>
<!-- Generator: Adobe Illustrator 24.2.1, SVG Export Plug-In . SVG Version: 6.00 Build 0)  -->
<svg version="1.1" id="Layer_1" xmlns="http://www.w3.org/2000/svg" xmlns:xlink="http://www.w3.org/1999/xlink" x="0px" y="0px"
	 viewBox="0 0 316.8062 316.1246" enable-background="new 0 0 316.8062 316.1246" xml:space="preserve">
<g>
	<path d="M196.1747,226.8669c-2.4258,1.4717-5.2012,2.249-8.0264,2.249c-5.4707,0-10.4297-2.79-13.2646-7.4639l-4.9844-8.2178
		c-1.9941-3.2881-0.4795-7.3906,4.1494-11.4775l-5.0665-8.3519c-10.7689-4.7231-21.979-9.1808-33.5042-13.2494l4.0306,9.4568
		c1.623,3.8086,1.667,8.0215,0.1211,11.8633c-1.5449,3.8408-4.4932,6.8506-8.3018,8.4736
		c-1.9365,0.8252-3.9795,1.2441-6.0723,1.2441h-0.0029c-6.2227,0-11.8213-3.6992-14.2617-9.4248l-14.2412-33.4136
		c-3.924-0.9831-7.6945-1.8597-11.2662-2.6052c-8.0864-1.6879-15.2505-2.7662-21.4902-3.3026
		c-3.0785-0.2646-5.9492-0.4075-8.5608-0.4067c-7.6418,0.0022-13.3022,1.1196-16.8342,3.2471
		c-2.2656,1.3647-3.6477,3.1608-4.1367,5.352c-0.8667,1.5038-1.2034,3.2895-0.9609,5.3623
		c0.4587,3.9206,2.9111,8.5238,7.0708,13.5744c4.1426,5.0297,10.0311,10.5673,17.4484,16.3972
		c7.4808,5.8799,16.6124,12.1325,27.234,18.5498c10.8534,6.5574,23.4084,13.3749,37.5645,20.2422
		c14.6704,7.1169,28.9626,13.1679,42.6184,18.2065c14.2112,5.2435,27.76,9.4005,40.2795,12.4983
		c13.0416,3.227,24.9448,5.2993,35.2258,6.2348c10.6792,0.9718,19.5447,0.7115,26.0195-0.7449
		c-1.1121-2.1964-2.6191-4.5782-4.5045-7.1194c-3.4156,0.0747-7.1097-0.0071-11.0574-0.2504
		c-10.3038-0.635-22.2625-2.3589-35.3928-5.2038c-12.6045-2.731-26.2689-6.4907-40.6271-11.3171
		c-13.7971-4.6378-28.2599-10.269-43.1317-16.9546c-6.0094-2.7015-11.7202-5.4014-17.1599-8.0865
		c4.105,1.8108,8.3407,3.6225,12.7416,5.4299c15.083,6.1945,29.7227,11.3485,43.6643,15.5315
		c14.5087,4.3531,28.2891,7.6628,40.9763,9.9791c13.2166,2.4129,25.2253,3.7438,35.5444,4.0407
		c9.9927,0.2875,18.3438-0.397,24.5925-1.9937c0.4541-0.116,0.8992-0.2359,1.3309-0.3616
		c-3.2748-5.5807-9.3362-12.2653-17.9386-19.6319c-8.5908-7.3567-19.6084-15.3018-32.6982-23.377
		c-6.2603-3.8619-12.9617-7.7274-20.0382-11.5465C204.636,216.5913,201.9819,223.3444,196.1747,226.8669z"/>
	<path d="M37.0215,66.5567l41.084,15.5195c0.9199,0.3477,1.877,0.5166,2.8252,0.5166c2.1152,0,4.1885-0.8394,5.7217-2.4072
		l18.4113-18.8275c12.903,16.5082,16.2799,34.9043,16.9471,46.7678c0.0962,1.7086,0.1366,3.2808,0.1406,4.6931L96.995,145.0114
		c-2.8018,3.5859-3.4336,8.4111-1.6494,12.5977l18.4053,43.1826c2.0254,4.752,6.6455,7.6025,11.5049,7.6016
		c1.6348,0,3.2969-0.3223,4.8955-1.0039c6.3506-2.707,9.3047-10.0498,6.5977-16.4004l-15.5127-36.3965l25.4164-32.5259
		l-0.2004,5.1297l-0.343,8.775l-1.0448,26.7355c-0.0957,2.4502,0.5313,4.874,1.8027,6.9707l5.4316,8.9551
		c0.9854,1.625,5.5313,0.6416,10.2139-1.4775l15.4619,25.4893c-4.1211,3.0469-7.0107,6.7598-5.5098,9.2344l4.9844,8.2178
		c2.3516,3.877,6.4736,6.0195,10.6992,6.0195c2.208,0,4.4453-0.5859,6.4707-1.8145c5.9023-3.5801,7.7852-11.2676,4.2051-17.1699
		l-4.9844-8.2178c-1.502-2.4746-6.1299-1.6279-10.7354,0.6191l-15.3164-25.252c4.2813-2.7822,7.3867-6.1387,5.8857-8.6133
		l-3.4814-5.7412l1.0502-26.8778l1.1891-30.4347c0.0321-0.8196-0.0211-1.6223-0.1415-2.4037
		c-0.1414-10.2512-3.1138-24.4368-11.0752-41.9186c21.5675,11.4208,49.2722,30.1512,61.1016,38.5878
		c1.4082,1.0044,3.0313,1.4873,4.6387,1.4873c2.498,0,4.959-1.1665,6.5195-3.355c2.5654-3.5972,1.7295-8.5928-1.8672-11.1582
		c-2.2546-1.6083-50.5681-35.9556-78.9255-47.2235c-4.0306,6.0406-10.5911,10.3375-18.3555,11.2122
		c-0.9561,0.1074-1.9258,0.1621-2.8818,0.1621c-7.6366,0-14.5452-3.3748-19.2363-8.7817l-10.2329,3.7825
		c-0.3348,0.1238-0.6373,0.311-0.9258,0.5233c-0.9868,0.4012-1.9102,1.0038-2.7029,1.8139L78.8682,65.2608L42.6758,51.589
		c-4.1318-1.5591-8.75,0.5234-10.3105,4.6567C30.8037,60.379,32.8887,64.9952,37.0215,66.5567z"/>
	<path d="M133.9905,44.8607c12.3477-1.3906,21.2314-12.528,19.8407-24.8766c-1.3907-12.3488-12.5289-21.2313-24.8766-19.8408
		C116.605,1.5342,107.7231,12.6712,109.1138,25.02C110.5045,37.3686,121.6409,46.2515,133.9905,44.8607z"/>
	<path d="M136.9297,279.398c9.6377-0.1758,23.834,1.4551,39.916,4.5762l0.5723-2.9453c-16.2813-3.1592-30.6836-4.7969-40.541-4.6309
		c-0.1416,0.0029-0.2842,0.0039-0.4307,0.0039c-18.7588,0-78.6357-20.2832-89.9395-32.2319l-2.1797,2.0615
		c11.9541,12.6357,72.4492,33.1709,92.1338,33.1704C136.6191,279.4019,136.7764,279.4005,136.9297,279.398z"/>
	<path d="M301.9736,290.5421c-1.0811,2.647-13.8037,5.145-39.1709,4.3687c-21.7686-0.6646-44.3213-3.4346-56.1191-6.8926
		c-5.4316-1.5923-11.7852-3.2188-18.3721-4.7041l-0.6602,2.9268c6.5264,1.4717,12.8164,3.0815,18.1885,4.6563
		c13.5996,3.9858,42.6387,7.2437,65.791,7.2432c17.2412,0,31.2188-1.8066,33.1201-6.4644
		c8.4395-20.667-40.0518-56.2563-42.1201-57.7612l-1.7656,2.4258C261.3525,236.6954,309.5313,272.0348,301.9736,290.5421z"/>
	<path d="M213.5244,196.9249l-2.6367,1.4326c4.2627,7.8418,38.6748,30.1479,40.1377,31.0938l1.6289-2.5195
		C242.8682,220.6051,216.7617,202.881,213.5244,196.9249z"/>
	<path d="M20.915,210.192c-9.7002-7.4429-19.1611-13.7378-19.2549-13.8003L0,198.8907c0.0938,0.062,9.4736,6.3032,19.0889,13.6812
		L20.915,210.192z"/>
	<path d="M37.9531,229.6017c8.9629,11.6528,50.6309,27.5596,52.4004,28.231l1.0645-2.8047
		c-0.4258-0.1616-42.6387-16.2725-51.0859-27.2554c-2.375-3.0869-6.4014-7.0049-11.9707-11.6455l-1.9199,2.3047
		C31.8408,222.9312,35.7139,226.6895,37.9531,229.6017z"/>
	<path d="M100.1279,245.9503c-9.335-3.6372-29.3652-17.2104-42.6191-26.1924c-4.5508-3.084-8.1455-5.52-10.3037-6.8735
		l-1.5938,2.541c2.1123,1.3257,5.6875,3.7485,10.2148,6.8164c13.3652,9.0571,33.5625,22.7441,43.2119,26.5034
		c4.4004,1.7144,10.8984,4.4019,19.3145,7.9888l1.1758-2.7598C111.084,250.3751,104.5566,247.6754,100.1279,245.9503z"/>
	<path d="M138.8281,262.3233c0,0-5.7979-2.5479-13.2559-5.7593l-1.1855,2.7559c7.4443,3.2051,13.2324,5.7485,13.2344,5.7495
		L138.8281,262.3233z"/>
	<path d="M222.9395,306.8517c-10.1855,0.9312-17.3066,3.2144-21.7695,6.98l1.9336,2.293c3.9785-3.356,10.5557-5.4121,20.1094-6.2856
		L222.9395,306.8517z"/>
	<path d="M255.8242,306.7686c-7.833-0.2769-15.9355-0.5635-23.333-0.4146l0.0605,2.999c7.3174-0.144,15.374,0.1382,23.167,0.4136
		c6.3838,0.2256,12.9238,0.4565,19.167,0.4565c2.3887,0,4.7354-0.0337,7.0117-0.1147l-0.1074-2.998
		C273.6768,307.4,264.5996,307.0797,255.8242,306.7686z"/>
	<path d="M312.6201,296.3033c-3.3037,5.9829-11.1377,9.3027-24.6396,10.4458l0.2539,2.9893
		c14.6729-1.2422,23.2764-5.0869,27.0752-12.1006l0.0889-0.1973c5.7305-15.6021-7.3262-32.1436-15.9658-43.0894
		c-3.5205-4.459-6.8447-8.6709-7.0723-10.6626l-2.9805,0.3408c0.3242,2.8394,3.417,6.7578,7.6973,12.1807
		C305.7734,267.2271,317.6758,282.3058,312.6201,296.3033z"/>
	<path d="M279.1455,286.0064c-5.2646,0.0107-11.2314,0.0225-15.6914,2.0049l1.2188,2.7412
		c3.8809-1.7246,9.5107-1.7363,14.4785-1.7461c6.4932-0.0132,12.1016-0.0249,14.3926-3.4072
		c4.04-5.9648-6.5498-17.0039-7.7705-18.2427l-2.1367,2.105c3.3262,3.3809,9.5186,11.3618,7.4229,14.4551
		C289.6592,285.985,284.3145,285.9957,279.1455,286.0064z"/>
</g>
</svg>
