<?xml version="1.0" encoding="UTF-8"?>
<!DOCTYPE svg PUBLIC "-//W3C//DTD SVG 1.1//EN" "http://www.w3.org/Graphics/SVG/1.1/DTD/svg11.dtd">
<!-- Creator: CorelDRAW 2018 (64-Bit) -->
<svg xmlns="http://www.w3.org/2000/svg" xml:space="preserve" width="0.25652in" height="0.304433in" version="1.1" style="shape-rendering:geometricPrecision; text-rendering:geometricPrecision; image-rendering:optimizeQuality; fill-rule:evenodd; clip-rule:evenodd"
viewBox="0 0 256.52 304.43"
 xmlns:xlink="http://www.w3.org/1999/xlink">
 <defs>
  <style type="text/css">
   <![CDATA[
    .fil0 {fill:black}
   ]]>
  </style>
 </defs>
 <g id="Layer_x0020_1">
  <metadata id="CorelCorpID_0Corel-Layer"/>
  <path class="fil0" d="M114.29 88.19l27.94 0 0 216.24 -27.94 0 0 -216.24zm-114.29 -46.57l106.46 42.92 0 216.58 -106.46 -49.24 0 -210.26zm256.52 0l-106.46 42.92 0 216.58 106.46 -49.24 0 -210.26zm-240.69 -25.06l103.62 67 -60.12 -57.88 0.1 -25.67 60.07 83.44 -14.98 -25.41 1.04 -46.56 14.17 72.29 -103.8 -49.78 -0.1 -17.43zm225.53 0l-103.62 67 60.12 -57.88 -0.09 -25.67 -60.07 83.44 14.98 -25.41 -1.04 -46.56 -14.17 72.29 103.8 -49.78 0.1 -17.43zm-118.76 -13.96l10.31 0 0 81.17 -10.31 0 0 -81.17z"/>
 </g>
</svg>
